# xmcd
#
# Track frame offsets: 
#        150
#        2578
#        19052
#        34337
#        55091
#        77997
#        94254
#        108482
#        127904
#        144971
#        167332
#
# Disc length: 2516 seconds
#
# Revision: 0
# Processed by: cddbd v1.5.2PL0 Copyright (c) Steve Scherf et al.
# Submitted via: ExactAudioCopy v0.99pb5
#
DISCID=8009d20b
DTITLE=Young Galaxy - Shapeshifting
DYEAR=2011
DGENRE=Indie
TTITLE0=Nth
TTITLE1=The Angels Are Surely Weeping (Featuring Hanna)
TTITLE2=Blown Minded
TTITLE3=We Have Everything
TTITLE4=For Dear Life
TTITLE5=Peripheral Visionaries
TTITLE6=High And Goodbye
TTITLE7=Phantoms
TTITLE8=Cover Your Tracks
TTITLE9=B.S.E.
TTITLE10=Shapeshifting
EXTD=
EXTT0=
EXTT1=
EXTT2=
EXTT3=
EXTT4=
EXTT5=
EXTT6=
EXTT7=
EXTT8=
EXTT9=
EXTT10=
PLAYORDER=
